<svg width="39" height="24" viewBox="0 0 39 24" fill="none" xmlns="http://www.w3.org/2000/svg">
<g clip-path="url(#clip0_1697_1113)">
<path opacity="0.07" d="M35.4888 0H3.48883C1.78883 0 0.488831 1.3 0.488831 3V21C0.488831 22.7 1.88883 24 3.48883 24H35.4888C37.1888 24 38.4888 22.7 38.4888 21V3C38.4888 1.3 37.0888 0 35.4888 0Z" fill="black"/>
<path d="M35.4888 1C36.5888 1 37.4888 1.9 37.4888 3V21C37.4888 22.1 36.5888 23 35.4888 23H3.48883C2.38883 23 1.48883 22.1 1.48883 21V3C1.48883 1.9 2.38883 1 3.48883 1H35.4888Z" fill="white"/>
<path d="M4.05883 7.16004H2.48883V12.66H4.05883C4.88883 12.66 5.48883 12.46 6.01883 12.03C6.64883 11.51 7.01883 10.73 7.01883 9.92004C7.00883 8.29004 5.79883 7.16004 4.05883 7.16004ZM5.31883 11.3C4.97883 11.6 4.54883 11.74 3.84883 11.74H3.55883V8.10004H3.84883C4.53883 8.10004 4.95883 8.22004 5.31883 8.54004C5.68883 8.87004 5.90883 9.38004 5.90883 9.91004C5.90883 10.44 5.68883 10.97 5.31883 11.3ZM7.50883 7.16004H8.57883V12.66H7.50883V7.16004ZM11.1988 9.27004C10.5588 9.03004 10.3688 8.87004 10.3688 8.58004C10.3688 8.23004 10.7088 7.97004 11.1688 7.97004C11.4888 7.97004 11.7588 8.10004 12.0288 8.42004L12.5888 7.69004C12.1288 7.29004 11.5788 7.08004 10.9688 7.08004C9.99883 7.08004 9.24883 7.76004 9.24883 8.66004C9.24883 9.42004 9.59883 9.81004 10.5988 10.17C11.0188 10.32 11.2288 10.42 11.3388 10.48C11.5488 10.62 11.6588 10.82 11.6588 11.05C11.6588 11.5 11.3088 11.83 10.8288 11.83C10.3188 11.83 9.90883 11.57 9.65883 11.1L8.96883 11.77C9.45883 12.5 10.0588 12.82 10.8688 12.82C11.9788 12.82 12.7688 12.08 12.7688 11.01C12.7888 10.12 12.4188 9.72004 11.1988 9.27004ZM13.1188 9.92004C13.1188 11.54 14.3888 12.79 16.0188 12.79C16.4788 12.79 16.8788 12.7 17.3588 12.47V11.21C16.9288 11.64 16.5488 11.81 16.0688 11.81C14.9888 11.81 14.2188 11.03 14.2188 9.91004C14.2188 8.85004 15.0088 8.02004 16.0188 8.02004C16.5288 8.02004 16.9188 8.20004 17.3588 8.64004V7.38004C16.8888 7.14004 16.4988 7.04004 16.0388 7.04004C14.4288 7.04004 13.1188 8.32004 13.1188 9.92004ZM25.8788 10.86L24.4088 7.16004H23.2388L25.5688 12.8H26.1488L28.5188 7.16004H27.3588L25.8788 10.86ZM29.0088 12.66H32.0488V11.73H30.0788V10.25H31.9788V9.32004H30.0788V8.10004H32.0488V7.16004H29.0088V12.66ZM36.2988 8.79004C36.2988 7.76004 35.5888 7.17004 34.3488 7.17004H32.7588V12.67H33.8288V10.46H33.9688L35.4488 12.67H36.7688L35.0388 10.35C35.8488 10.18 36.2988 9.63004 36.2988 8.79004ZM34.1388 9.70004H33.8288V8.03004H34.1588C34.8288 8.03004 35.1888 8.31004 35.1888 8.85004C35.1888 9.40004 34.8288 9.70004 34.1388 9.70004Z" fill="#231F20"/>
<path d="M20.6488 12.86C21.4262 12.86 22.1717 12.5512 22.7214 12.0016C23.271 11.4519 23.5798 10.7064 23.5798 9.92905C23.5798 9.1517 23.271 8.40619 22.7214 7.85652C22.1717 7.30685 21.4262 6.99805 20.6488 6.99805C19.8715 6.99805 19.126 7.30685 18.5763 7.85652C18.0266 8.40619 17.7178 9.1517 17.7178 9.92905C17.7178 10.7064 18.0266 11.4519 18.5763 12.0016C19.126 12.5512 19.8715 12.86 20.6488 12.86Z" fill="url(#paint0_linear_1697_1113)"/>
<path opacity="0.65" d="M20.6488 12.86C21.4262 12.86 22.1717 12.5512 22.7214 12.0016C23.271 11.4519 23.5798 10.7064 23.5798 9.92905C23.5798 9.1517 23.271 8.40619 22.7214 7.85652C22.1717 7.30685 21.4262 6.99805 20.6488 6.99805C19.8715 6.99805 19.126 7.30685 18.5763 7.85652C18.0266 8.40619 17.7178 9.1517 17.7178 9.92905C17.7178 10.7064 18.0266 11.4519 18.5763 12.0016C19.126 12.5512 19.8715 12.86 20.6488 12.86Z" fill="url(#paint1_linear_1697_1113)"/>
<path d="M37.0588 7.50645C37.0588 7.40645 36.9888 7.35645 36.8788 7.35645H36.7188V7.83645H36.8388V7.64645L36.9788 7.83645H37.1188L36.9588 7.63645C37.0188 7.62645 37.0588 7.57645 37.0588 7.50645ZM36.8588 7.57645H36.8388V7.44645H36.8588C36.9188 7.44645 36.9488 7.46645 36.9488 7.50645C36.9488 7.55645 36.9188 7.57645 36.8588 7.57645Z" fill="#231F20"/>
<path d="M36.8988 7.17578C36.6688 7.17578 36.4788 7.36578 36.4788 7.59578C36.4788 7.82578 36.6688 8.01578 36.8988 8.01578C37.1288 8.01578 37.3188 7.82578 37.3188 7.59578C37.3188 7.36578 37.1288 7.17578 36.8988 7.17578ZM36.8988 7.94578C36.7188 7.94578 36.5588 7.79578 36.5588 7.59578C36.5588 7.40578 36.7088 7.24578 36.8988 7.24578C37.0788 7.24578 37.2288 7.40578 37.2288 7.59578C37.2288 7.78578 37.0788 7.94578 36.8988 7.94578Z" fill="#231F20"/>
<path d="M37.4888 12.9844C37.4888 12.9844 27.5788 19.8734 9.46478 23.0004H35.4878C36.0155 23.0004 36.5218 22.7919 36.8964 22.4203C37.271 22.0486 37.4836 21.544 37.4878 21.0164L37.5118 17.9964L37.4888 12.9854V12.9844Z" fill="#F48120"/>
</g>
<defs>
<linearGradient id="paint0_linear_1697_1113" x1="22.1458" y1="12.275" x2="20.1208" y2="9.10405" gradientUnits="userSpaceOnUse">
<stop stop-color="#F89F20"/>
<stop offset="0.25" stop-color="#F79A20"/>
<stop offset="0.533" stop-color="#F68D20"/>
<stop offset="0.62" stop-color="#F58720"/>
<stop offset="0.723" stop-color="#F48120"/>
<stop offset="1" stop-color="#F37521"/>
</linearGradient>
<linearGradient id="paint1_linear_1697_1113" x1="21.8268" y1="12.232" x2="18.8668" y2="6.44605" gradientUnits="userSpaceOnUse">
<stop stop-color="#F58720"/>
<stop offset="0.359" stop-color="#E16F27"/>
<stop offset="0.703" stop-color="#D4602C"/>
<stop offset="0.982" stop-color="#D05B2E"/>
</linearGradient>
<clipPath id="clip0_1697_1113">
<rect width="39" height="24" fill="white"/>
</clipPath>
</defs>
</svg>
