<svg width="64" height="65" viewBox="0 0 64 65" fill="none" xmlns="http://www.w3.org/2000/svg">
<path d="M31.5507 52.991C20.3259 52.991 11.1956 43.6681 11.1956 32.21C11.1956 20.7518 20.3259 11.429 31.5507 11.429C42.7755 11.429 51.9058 20.7518 51.9058 32.21C51.9058 43.6681 42.7755 52.991 31.5507 52.991ZM31.5507 13.5059C21.4461 13.5059 13.2317 21.8953 13.2317 32.21C13.2317 42.5246 21.4519 50.914 31.5507 50.914C41.6495 50.914 49.8697 42.5246 49.8697 32.21C49.8697 21.8953 41.6495 13.5059 31.5507 13.5059Z" fill="#4C1E1E"/>
<path d="M31.5507 8.31357C30.9906 8.31357 30.5356 7.84684 30.5356 7.2751V1.03847C30.5356 0.466727 30.9906 0 31.5507 0C32.1108 0 32.5658 0.466727 32.5658 1.03847V7.2751C32.5658 7.84684 32.1108 8.31357 31.5507 8.31357Z" fill="#4C1E1E"/>
<path d="M14.2818 15.6179C14.0193 15.6179 13.7626 15.5187 13.5642 15.3145L9.247 10.9039C8.85028 10.4955 8.85028 9.84212 9.247 9.43373C9.64372 9.02534 10.2913 9.02534 10.688 9.43373L15.0052 13.8443C15.402 14.2527 15.402 14.9061 15.0052 15.3145C14.8069 15.5187 14.5444 15.6179 14.2877 15.6179H14.2818Z" fill="#4C1E1E"/>
<path d="M7.12342 33.2483H1.01513C0.455059 33.2483 0 32.7816 0 32.2099C0 31.6381 0.455059 31.1714 1.01513 31.1714H7.12342C7.68349 31.1714 8.13855 31.6381 8.13855 32.2099C8.13855 32.7816 7.68349 33.2483 7.12342 33.2483Z" fill="#4C1E1E"/>
<path d="M9.95876 55.2897C9.69623 55.2897 9.43953 55.1906 9.24117 54.9864C8.84445 54.578 8.84445 53.9246 9.24117 53.5162L13.5584 49.1056C13.9551 48.6972 14.6027 48.6972 14.9994 49.1056C15.3961 49.514 15.3961 50.1674 14.9994 50.5758L10.6822 54.9864C10.4838 55.1906 10.2213 55.2897 9.9646 55.2897H9.95876Z" fill="#4C1E1E"/>
<path d="M31.5507 64.42C30.9906 64.42 30.5356 63.9533 30.5356 63.3815V57.1449C30.5356 56.5732 30.9906 56.1064 31.5507 56.1064C32.1108 56.1064 32.5658 56.5732 32.5658 57.1449V63.3815C32.5658 63.9533 32.1108 64.42 31.5507 64.42Z" fill="#4C1E1E"/>
<path d="M53.1427 55.2897C52.8801 55.2897 52.6234 55.1906 52.4251 54.9864L48.1078 50.5758C47.7111 50.1674 47.7111 49.514 48.1078 49.1056C48.5046 48.6972 49.1521 48.6972 49.5489 49.1056L53.8661 53.5162C54.2628 53.9246 54.2628 54.578 53.8661 54.9864C53.6677 55.1906 53.4052 55.2897 53.1485 55.2897H53.1427Z" fill="#4C1E1E"/>
<path d="M62.0863 33.2483H55.978C55.4179 33.2483 54.9629 32.7816 54.9629 32.2099C54.9629 31.6381 55.4179 31.1714 55.978 31.1714H62.0863C62.6464 31.1714 63.1014 31.6381 63.1014 32.2099C63.1014 32.7816 62.6464 33.2483 62.0863 33.2483Z" fill="#4C1E1E"/>
<path d="M48.8254 15.6179C48.5629 15.6179 48.3062 15.5187 48.1078 15.3145C47.7111 14.9061 47.7111 14.2527 48.1078 13.8443L52.4251 9.43373C52.8218 9.02534 53.4694 9.02534 53.8661 9.43373C54.2628 9.84212 54.2628 10.4955 53.8661 10.9039L49.5489 15.3145C49.3505 15.5187 49.088 15.6179 48.8313 15.6179H48.8254Z" fill="#4C1E1E"/>
</svg>
