<svg width="20" height="20" viewBox="0 0 20 20" fill="none" xmlns="http://www.w3.org/2000/svg">
<path d="M5.55556 0C4.08213 0 2.66905 0.585316 1.62718 1.62718C0.585316 2.66905 0 4.08213 0 5.55556V14.4444C0 15.9179 0.585316 17.3309 1.62718 18.3728C2.66905 19.4147 4.08213 20 5.55556 20H14.4444C15.9179 20 17.3309 19.4147 18.3728 18.3728C19.4147 17.3309 20 15.9179 20 14.4444V5.55556C20 4.08213 19.4147 2.66905 18.3728 1.62718C17.3309 0.585316 15.9179 0 14.4444 0H5.55556ZM16.6667 2.22222C17.2778 2.22222 17.7778 2.72222 17.7778 3.33333C17.7778 3.94444 17.2778 4.44444 16.6667 4.44444C16.0556 4.44444 15.5556 3.94444 15.5556 3.33333C15.5556 2.72222 16.0556 2.22222 16.6667 2.22222ZM10 4.44444C11.4734 4.44444 12.8865 5.02976 13.9284 6.07163C14.9702 7.1135 15.5556 8.52658 15.5556 10C15.5556 11.4734 14.9702 12.8865 13.9284 13.9284C12.8865 14.9702 11.4734 15.5556 10 15.5556C8.52658 15.5556 7.1135 14.9702 6.07163 13.9284C5.02976 12.8865 4.44444 11.4734 4.44444 10C4.44444 8.52658 5.02976 7.1135 6.07163 6.07163C7.1135 5.02976 8.52658 4.44444 10 4.44444ZM10 6.66667C9.56211 6.66681 9.12855 6.7532 8.72405 6.92091C8.31955 7.08862 7.95205 7.33435 7.64252 7.64409C7.33299 7.95382 7.0875 8.32149 6.92006 8.7261C6.75262 9.13071 6.66652 9.56434 6.66667 10.0022C6.66681 10.4401 6.7532 10.8737 6.92091 11.2782C7.08862 11.6827 7.33435 12.0502 7.64409 12.3597C7.95382 12.6692 8.32149 12.9147 8.7261 13.0822C9.13071 13.2496 9.56434 13.3357 10.0022 13.3356C10.8866 13.3353 11.7346 12.9837 12.3597 12.3581C12.9848 11.7326 13.3359 10.8843 13.3356 10C13.3353 9.11565 12.9837 8.26764 12.3581 7.64252C11.7326 7.0174 10.8843 6.66637 10 6.66667Z" fill="#F7BCBD"/>
</svg>
