<svg width="352" height="21" viewBox="0 0 352 21" fill="none" xmlns="http://www.w3.org/2000/svg">
<path d="M3.09846 20.0281C2.04163 20.0281 1.05684 19.7364 0.144115 19.2016L0 19.1044L1.36909 16.6737L1.51321 16.7709C2.06564 17.1599 2.61808 17.3544 3.09846 17.3544C3.771 17.3544 4.20335 17.1112 4.46756 16.6009C4.75578 16.066 4.8999 15.0937 4.8999 13.7326V2.94043H7.71013V13.7569C7.71013 15.0695 7.61406 15.9932 7.44593 16.6495C7.27779 17.3786 6.94152 18.0106 6.50918 18.5211C5.66851 19.5176 4.51559 20.0281 3.12248 20.0281H3.09846Z" fill="#231F20"/>
<path d="M19.2152 19.7364V2.94043H28.5107V5.63848H22.0015V9.23587H28.3425V11.9096H22.0015V17.0626H28.5107V19.7364H19.2152Z" fill="#231F20"/>
<path d="M47.0771 19.7364L42.2973 12.9305H42.1773V19.7364H39.391V2.94043H42.4414C44.6273 2.94043 46.2125 3.35364 47.1972 4.20438C48.2781 5.15234 48.8305 6.39198 48.8305 7.94761C48.8305 9.13865 48.4943 10.1838 47.7977 11.0588C47.1733 11.861 46.3566 12.3958 45.3478 12.6632L50.4159 19.7364H47.0771ZM42.7778 10.4998C45.0115 10.4998 46.0924 9.6734 46.0924 7.97193C46.0924 6.39198 45.0355 5.61416 42.8738 5.61416H42.1773V10.4755H42.7778V10.4998Z" fill="#231F20"/>
<path d="M67.7101 20.0278C65.5724 20.0278 63.6509 19.2743 61.9455 17.7915C60.072 16.1387 59.1353 13.9511 59.1353 11.2773C59.1353 8.91958 60 6.87781 61.7054 5.20065C63.4106 3.52348 65.4763 2.64844 67.8542 2.64844C70.2321 2.64844 72.2497 3.49918 73.9311 5.20065C75.6124 6.90212 76.4771 8.96819 76.4771 11.3503C76.4771 13.7323 75.6124 15.8227 73.9311 17.4999C72.2257 19.177 70.1361 20.0278 67.7341 20.0278H67.7101ZM67.8061 5.32218C66.1729 5.32218 64.7798 5.90554 63.6509 7.04796C62.5219 8.19037 61.9455 9.62447 61.9455 11.2773C61.9455 13.0274 62.546 14.5101 63.6989 15.6282C64.8519 16.7706 66.2209 17.3297 67.7341 17.3297C69.3915 17.3297 70.7846 16.7464 71.9134 15.6039C73.0423 14.4373 73.6188 13.0031 73.6188 11.3259C73.6188 9.64878 73.0423 8.19037 71.9375 7.04796C70.8326 5.90554 69.4395 5.32218 67.7822 5.32218H67.8061Z" fill="#231F20"/>
<path d="M91.1045 10.2326L89.4231 19.7366H86.757H86.5408L90.1197 1.31201L95.7642 14.2432L101.601 1.31201L104.795 19.7366H101.937L100.448 10.2326L95.7162 20.7574L91.1045 10.2326Z" fill="#231F20"/>
<path d="M115.844 19.7364V2.94043H125.139V5.63848H118.63V9.23587H124.947V11.9096H118.63V17.0626H125.139V19.7364H115.844Z" fill="#231F20"/>
<path d="M159.799 19.7377L158.07 15.7514H151.321L149.519 19.7377H146.781H146.516L154.827 1.67773L162.849 19.7377H159.823H159.799ZM156.917 13.0775L154.779 8.09471L152.521 13.0775H156.917Z" fill="#231F20"/>
<path d="M242.689 19.7377L240.96 15.7514H234.21L232.408 19.7377H229.67H229.406L237.717 1.67773L245.739 19.7377H242.713H242.689ZM239.807 13.0775L237.669 8.09471L235.411 13.0775H239.807Z" fill="#231F20"/>
<path d="M172.385 19.7374V2.96582H175.172V17.0637H179.951V19.7374H172.385Z" fill="#231F20"/>
<path d="M189.919 19.7374V2.96582H199.215V5.63956H192.706V9.23696H199.023V11.935H192.706V17.0637H199.215V19.7374H189.919Z" fill="#231F20"/>
<path d="M218.598 19.7374L215.019 13.6122L211.465 19.6646L208.534 19.7374H208.222L213.482 10.8899L208.87 2.96582H211.945L215.043 8.36191L218.165 3.03873L221.12 2.96582H221.432L216.58 11.0843L221.648 19.7374H218.598Z" fill="#231F20"/>
<path d="M258.062 8.50604V19.7358H255.251V1.57861L267.117 14.1209V2.9641H269.903V20.9997L258.062 8.50604Z" fill="#231F20"/>
<path d="M281.408 19.7374V2.96582H284.987C286.62 2.96582 287.941 3.13596 288.902 3.47625C289.935 3.79225 290.896 4.3513 291.736 5.15342C293.441 6.73336 294.306 8.82374 294.306 11.376C294.306 13.9281 293.393 16.0429 291.64 17.6471C290.751 18.4492 289.79 19.0083 288.829 19.3243C287.917 19.6402 286.62 19.786 284.962 19.786H281.432L281.408 19.7374ZM285.131 17.0637C286.211 17.0637 287.124 16.9422 287.821 16.7234C288.517 16.4804 289.166 16.0915 289.743 15.581C290.896 14.5115 291.496 13.0774 291.496 11.3516C291.496 9.62586 290.919 8.16746 289.767 7.09796C288.734 6.12569 287.173 5.63956 285.131 5.63956H284.194V17.0637H285.131Z" fill="#231F20"/>
<path d="M305.019 19.7374V2.96582H314.338V5.63956H307.828V9.23696H314.145V11.935H307.828V17.0637H314.338V19.7374H305.019Z" fill="#231F20"/>
<path d="M332.881 19.7374L328.101 12.9316H327.981V19.7374H325.194V2.96582H328.245C330.431 2.96582 332.016 3.37903 333.001 4.22976C334.081 5.17773 334.634 6.41737 334.634 7.973C334.634 9.16403 334.298 10.2092 333.601 11.0843C332.977 11.8864 332.16 12.4211 331.151 12.6885L336.219 19.7618H332.881V19.7374ZM328.581 10.5009C330.815 10.5009 331.896 9.67447 331.896 7.973C331.896 6.39307 330.839 5.61525 328.678 5.61525H327.981V10.4766H328.581V10.5009Z" fill="#231F20"/>
<path d="M352 3.91338C352 6.10099 350.247 7.82677 348.133 7.82677C346.019 7.82677 344.242 6.05238 344.242 3.91338C344.242 1.7744 345.948 0 348.133 0C350.295 0 352 1.7744 352 3.91338ZM344.89 3.91338C344.89 5.71208 346.307 7.2191 348.109 7.2191C349.886 7.2191 351.327 5.76069 351.327 3.91338C351.327 2.13899 349.935 0.607669 348.109 0.607669C346.283 0.607669 344.89 2.11468 344.89 3.91338ZM348.325 1.7744C348.589 1.7744 349.839 1.7744 349.839 2.96542C349.839 3.45156 349.622 3.88908 349.045 4.01061C349.647 4.20506 349.742 4.56966 349.766 5.12872C349.815 5.85792 349.815 5.95515 349.91 6.1253H349.238C349.166 6.00376 349.118 5.85792 349.118 5.32317C349.118 4.64259 348.998 4.27799 348.013 4.27799H347.221V6.1253H346.548V1.7744H348.35H348.325ZM347.196 3.79185H348.013C348.301 3.79185 349.166 3.79185 349.166 2.98973C349.166 2.28484 348.397 2.28484 348.109 2.28484H347.196V3.79185Z" fill="#231F20"/>
</svg>
