<svg width="39" height="24" viewBox="0 0 39 24" fill="none" xmlns="http://www.w3.org/2000/svg">
<g clip-path="url(#clip0_1697_1107)">
<path opacity="0.07" d="M35.4888 0H3.48883C1.78883 0 0.488831 1.3 0.488831 3V21C0.488831 22.7 1.88883 24 3.48883 24H35.4888C37.1888 24 38.4888 22.7 38.4888 21V3C38.4888 1.3 37.0888 0 35.4888 0Z" fill="black"/>
<path d="M35.4888 1C36.5888 1 37.4888 1.9 37.4888 3V21C37.4888 22.1 36.5888 23 35.4888 23H3.48883C2.38883 23 1.48883 22.1 1.48883 21V3C1.48883 1.9 2.38883 1 3.48883 1H35.4888Z" fill="white"/>
<path d="M24.3888 8.3C24.5888 7.3 24.3888 6.6 23.7888 6C23.1888 5.3 22.0888 5 20.6888 5H16.5888C16.2888 5 16.0888 5.2 15.9888 5.5L14.4888 15.6C14.4888 15.8 14.5888 16 14.7888 16H17.4888L17.8888 12.6L19.6888 10.4L24.3888 8.3Z" fill="#003087"/>
<path d="M24.3889 8.2998L24.1889 8.4998C23.6889 11.2998 21.9889 12.2998 19.5889 12.2998H18.4889C18.1889 12.2998 17.9889 12.4998 17.8889 12.7998L17.2889 16.6998L17.0889 17.6998C17.0889 17.8998 17.1889 18.0998 17.3889 18.0998H19.4889C19.7889 18.0998 19.9889 17.8998 19.9889 17.6998V17.5998L20.3889 15.1998V15.0998C20.3889 14.8998 20.6889 14.6998 20.8889 14.6998H21.1889C23.2889 14.6998 24.8889 13.8998 25.2889 11.4998C25.4889 10.4998 25.3889 9.6998 24.8889 9.0998C24.7889 8.5998 24.5889 8.3998 24.3889 8.2998Z" fill="#3086C8"/>
<path d="M23.7888 8.0998C23.6888 7.9998 23.5888 7.9998 23.4888 7.9998C23.3888 7.9998 23.2888 7.9998 23.1888 7.8998C22.8888 7.7998 22.4888 7.7998 22.0888 7.7998H19.0888C18.9888 7.7998 18.8888 7.7998 18.8888 7.8998C18.6888 7.9998 18.5888 8.0998 18.5888 8.2998L17.8888 12.6998V12.7998C17.8888 12.4998 18.1888 12.2998 18.4888 12.2998H19.7888C22.2888 12.2998 23.8888 11.2998 24.3888 8.4998V8.2998C24.2888 8.1998 24.0888 8.0998 23.8888 8.0998H23.7888Z" fill="#012169"/>
</g>
<defs>
<clipPath id="clip0_1697_1107">
<rect width="39" height="24" fill="white"/>
</clipPath>
</defs>
</svg>
