<svg width="21" height="20" viewBox="0 0 21 20" fill="none" xmlns="http://www.w3.org/2000/svg">
<path d="M10.5153 0C4.7077 0 0 4.4725 0 9.98917C0 14.2217 2.77006 17.8367 6.68218 19.2908C6.59008 18.5 6.50762 17.2883 6.71814 16.425C6.91024 15.6442 7.95142 11.4608 7.95142 11.4608C7.95142 11.4608 7.63652 10.8608 7.63652 9.97667C7.63652 8.59083 8.48473 7.55083 9.5382 7.55083C10.4364 7.55083 10.8697 8.19167 10.8697 8.9575C10.8697 9.815 10.2969 11.0967 9.99958 12.2842C9.74959 13.2783 10.5259 14.0883 11.5565 14.0883C13.4231 14.0883 14.8617 12.2175 14.8617 9.51583C14.8617 7.13167 13.0521 5.45833 10.4689 5.45833C7.47776 5.45833 5.72432 7.59333 5.72432 9.79083C5.72432 10.6517 6.06992 11.5767 6.50411 12.075C6.59095 12.175 6.60236 12.2625 6.57867 12.3625C6.49973 12.675 6.32167 13.3617 6.2857 13.4983C6.23921 13.6858 6.13483 13.7242 5.93396 13.6358C4.62261 13.0608 3.79984 11.2375 3.79984 9.76417C3.79984 6.6175 6.21027 3.72083 10.7469 3.72083C14.3941 3.72083 17.2309 6.19333 17.2309 9.49C17.2309 12.9358 14.9441 15.7083 11.7635 15.7083C10.6987 15.7083 9.69872 15.1842 9.34435 14.5592L8.68736 16.9325C8.4514 17.8033 7.80669 18.8925 7.37338 19.5542C8.35842 19.8417 9.3961 20 10.4873 20C16.2827 20 21 15.5292 21 10.0108C21 4.49167 16.2827 0.0216667 10.4873 0.0216667L10.5153 0Z" fill="#F7BCBD"/>
</svg>
