<svg width="18" height="20" viewBox="0 0 18 20" fill="none" xmlns="http://www.w3.org/2000/svg">
<path d="M9.45361 0.0166665C10.5845 0 11.7067 0.00833323 12.829 0C12.8981 1.27498 13.3729 2.57497 14.3397 3.47496C15.3066 4.39994 16.6706 4.82494 18 4.9666V8.3249C16.7569 8.28323 15.5051 8.03323 14.3743 7.51657C13.8822 7.29991 13.4247 7.02491 12.9758 6.74158C12.9671 9.17488 12.9844 11.6082 12.9585 14.0332C12.8894 15.1998 12.4923 16.3581 11.7931 17.3165C10.6622 18.9164 8.70256 19.9581 6.69114 19.9914C5.45666 20.0581 4.22218 19.7331 3.16899 19.1331C1.42518 18.1414 0.199331 16.3248 0.0180438 14.3748C0.000778407 13.9582 -0.00785431 13.5415 0.00941114 13.1332C0.1648 11.5499 0.976276 10.0332 2.23665 8.99989C3.66968 7.7999 5.67248 7.22491 7.54578 7.56657C7.56304 8.79989 7.51124 10.0332 7.51124 11.2665C6.65661 10.9999 5.65521 11.0749 4.90416 11.5749C4.3603 11.9165 3.94593 12.4415 3.73011 13.0332C3.54883 13.4582 3.60062 13.9248 3.60926 14.3748C3.81644 15.7415 5.18041 16.8915 6.63071 16.7665C7.59757 16.7581 8.52127 16.2165 9.02197 15.4248C9.18599 15.1498 9.36728 14.8665 9.37591 14.5415C9.46224 13.0498 9.42771 11.5665 9.43634 10.0749C9.44497 6.71658 9.42771 3.36662 9.45361 0.0166665Z" fill="#F7BCBD"/>
</svg>
