<svg width="20" height="17" viewBox="0 0 20 17" fill="none" xmlns="http://www.w3.org/2000/svg">
<path d="M19.9608 2.02494C19.2121 2.36972 18.4188 2.5973 17.6067 2.70036C18.4618 2.16286 19.102 1.31994 19.4092 0.327254C18.6167 0.810939 17.7383 1.16303 16.8033 1.35911C16.1865 0.669258 15.3691 0.211711 14.478 0.057525C13.587 -0.0966614 12.6722 0.0611409 11.8758 0.506427C11.0793 0.951714 10.4457 1.65957 10.0734 2.52007C9.70104 3.38057 9.6108 4.34556 9.81667 5.2652C6.40833 5.097 3.38917 3.38449 1.36667 0.797866C0.998995 1.45133 0.80722 2.19665 0.811667 2.95484C0.811667 4.44511 1.53667 5.75498 2.635 6.52452C1.98405 6.50285 1.34748 6.31879 0.778333 5.98767V6.03996C0.777964 7.03033 1.10522 7.99034 1.70459 8.7571C2.30395 9.52387 3.13851 10.0502 4.06667 10.2467C3.46525 10.4152 2.83534 10.4406 2.22333 10.3208C2.48677 11.1731 2.99805 11.9182 3.68585 12.4521C4.37364 12.9859 5.20363 13.2819 6.06 13.2987C4.60961 14.4891 2.81873 15.1352 0.975 15.1332C0.65 15.1332 0.325833 15.1132 0 15.0748C1.87976 16.3336 4.06543 17.0017 6.2975 17C13.8417 17 17.9625 10.4672 17.9625 4.81201C17.9625 4.629 17.9625 4.44598 17.95 4.26297C18.755 3.65715 19.4494 2.90501 20 2.04237L19.9608 2.02494Z" fill="#F7BCBD"/>
</svg>
