<svg width="39" height="24" viewBox="0 0 39 24" fill="none" xmlns="http://www.w3.org/2000/svg">
<g clip-path="url(#clip0_1697_1103)">
<path opacity="0.07" d="M35.4888 0H3.48883C1.78883 0 0.488831 1.3 0.488831 3V21C0.488831 22.7 1.88883 24 3.48883 24H35.4888C37.1888 24 38.4888 22.7 38.4888 21V3C38.4888 1.3 37.0888 0 35.4888 0Z" fill="black"/>
<path d="M35.4888 1C36.5888 1 37.4888 1.9 37.4888 3V21C37.4888 22.1 36.5888 23 35.4888 23H3.48883C2.38883 23 1.48883 22.1 1.48883 21V3C1.48883 1.9 2.38883 1 3.48883 1H35.4888Z" fill="white"/>
<path d="M28.7888 10.1H28.4888C28.0888 11.1 27.7888 11.6 27.4888 13.1H29.3888C29.0888 11.6 29.0888 10.9 28.7888 10.1ZM31.6888 16H29.9888C29.8888 16 29.8888 16 29.7888 15.9L29.5888 15L29.4888 14.8H27.0888C26.9888 14.8 26.8888 14.8 26.8888 15L26.5888 15.9C26.5888 16 26.4888 16 26.4888 16H24.3888L24.5888 15.5L27.4888 8.7C27.4888 8.2 27.7888 8 28.2888 8H29.7888C29.8888 8 29.9888 8 29.9888 8.2L31.3888 14.7C31.4888 15.1 31.5888 15.4 31.5888 15.8C31.6888 15.9 31.6888 15.9 31.6888 16ZM18.2888 15.7L18.6888 13.9C18.7888 13.9 18.8888 14 18.8888 14C19.5888 14.3 20.2888 14.5 20.9888 14.4C21.1888 14.4 21.4888 14.3 21.6888 14.2C22.1888 14 22.1888 13.5 21.7888 13.1C21.5888 12.9 21.2888 12.8 20.9888 12.6C20.5888 12.4 20.1888 12.2 19.8888 11.9C18.6888 10.9 19.0888 9.5 19.7888 8.8C20.3888 8.4 20.6888 8 21.4888 8C22.6888 8 23.9888 8 24.5888 8.2H24.6888C24.5888 8.8 24.4888 9.3 24.2888 9.9C23.7888 9.7 23.2888 9.5 22.7888 9.5C22.4888 9.5 22.1888 9.5 21.8888 9.6C21.6888 9.6 21.5888 9.7 21.4888 9.8C21.2888 10 21.2888 10.3 21.4888 10.5L21.9888 10.9C22.3888 11.1 22.7888 11.3 23.0888 11.5C23.5888 11.8 24.0888 12.3 24.1888 12.9C24.3888 13.8 24.0888 14.6 23.2888 15.2C22.7888 15.6 22.5888 15.8 21.8888 15.8C20.4888 15.8 19.3888 15.9 18.4888 15.6C18.3888 15.8 18.3888 15.8 18.2888 15.7ZM14.7888 16C14.8888 15.3 14.8888 15.3 14.9888 15C15.4888 12.8 15.9888 10.5 16.3888 8.3C16.4888 8.1 16.4888 8 16.6888 8H18.4888C18.2888 9.2 18.0888 10.1 17.7888 11.2C17.4888 12.7 17.1888 14.2 16.7888 15.7C16.7888 15.9 16.6888 15.9 16.4888 15.9L14.7888 16ZM5.48883 8.2C5.48883 8.1 5.68883 8 5.78883 8H9.18883C9.68883 8 10.0888 8.3 10.1888 8.8L11.0888 13.2C11.0888 13.3 11.0888 13.3 11.1888 13.4C11.1888 13.3 11.2888 13.3 11.2888 13.3L13.3888 8.2C13.2888 8.1 13.3888 8 13.4888 8H15.5888C15.5888 8.1 15.5888 8.1 15.4888 8.2L12.3888 15.5C12.2888 15.7 12.2888 15.8 12.1888 15.9C12.0888 16 11.8888 15.9 11.6888 15.9H10.1888C10.0888 15.9 9.98883 15.9 9.98883 15.7L8.38883 9.5C8.18883 9.3 7.88883 9 7.48883 8.9C6.88883 8.6 5.78883 8.4 5.58883 8.4L5.48883 8.2Z" fill="#142688"/>
</g>
<defs>
<clipPath id="clip0_1697_1103">
<rect width="39" height="24" fill="white"/>
</clipPath>
</defs>
</svg>
