<svg width="20" height="14" viewBox="0 0 20 14" fill="none" xmlns="http://www.w3.org/2000/svg">
<path d="M19.5817 2.18652C19.4687 1.76368 19.2459 1.37776 18.9355 1.0674C18.6252 0.757035 18.2382 0.533127 17.8133 0.418096C16.2542 9.86949e-08 10 0 10 0C10 0 3.74583 9.86949e-08 2.18583 0.418096C1.76117 0.53333 1.37441 0.757319 1.06423 1.06766C0.754051 1.378 0.531326 1.76382 0.418333 2.18652C0 3.7463 0 7 0 7C0 7 0 10.2537 0.418333 11.8135C0.531322 12.2363 0.754146 12.6222 1.06449 12.9326C1.37484 13.243 1.76181 13.4669 2.18667 13.5819C3.74583 14 10 14 10 14C10 14 16.2542 14 17.8142 13.5819C18.2391 13.467 18.6261 13.2431 18.9364 12.9327C19.2468 12.6223 19.4696 12.2364 19.5825 11.8135C20 10.2537 20 7 20 7C20 7 20 3.7463 19.5817 2.18652ZM7.95417 9.95399V4.04601L13.1817 7L7.95417 9.95399Z" fill="#F7BCBD"/>
</svg>
